<svg xmlns="http://www.w3.org/2000/svg" viewBox="0 0 1600 600" width="1600" height="600">
  <defs>
    <linearGradient id="bg" x1="0" y1="0" x2="1" y2="1">
      <stop offset="0" stop-color="#0c1822"/>
      <stop offset="1" stop-color="#152934"/>
    </linearGradient>
    <linearGradient id="molten" x1="0" y1="0" x2="0" y2="1">
      <stop offset="0" stop-color="#ffdf8a"/>
      <stop offset="0.5" stop-color="#ff8a2a"/>
      <stop offset="1" stop-color="#b33b12"/>
    </linearGradient>
    <linearGradient id="steel" x1="0" y1="0" x2="1" y2="1">
      <stop offset="0" stop-color="#6f8793"/>
      <stop offset="1" stop-color="#2a3a44"/>
    </linearGradient>
    <radialGradient id="furnace" cx="50%" cy="50%" r="60%">
      <stop offset="0" stop-color="#ffb35c"/>
      <stop offset="1" stop-color="#7b2a1a" stop-opacity="0.2"/>
    </radialGradient>
    <symbol id="gear" viewBox="-100 -100 200 200">
      <circle cx="0" cy="0" r="70" fill="url(#steel)" stroke="#1c2b33" stroke-width="6"/>
      <circle cx="0" cy="0" r="20" fill="#14222b" stroke="#90a4ae" stroke-width="4"/>
      <g id="tooth">
        <rect x="-10" y="-110" width="20" height="26" rx="3" fill="#7a909b"/>
      </g>
      <use href="#tooth" transform="rotate(0)"/>
      <use href="#tooth" transform="rotate(30)"/>
      <use href="#tooth" transform="rotate(60)"/>
      <use href="#tooth" transform="rotate(90)"/>
      <use href="#tooth" transform="rotate(120)"/>
      <use href="#tooth" transform="rotate(150)"/>
      <use href="#tooth" transform="rotate(180)"/>
      <use href="#tooth" transform="rotate(210)"/>
      <use href="#tooth" transform="rotate(240)"/>
      <use href="#tooth" transform="rotate(270)"/>
      <use href="#tooth" transform="rotate(300)"/>
      <use href="#tooth" transform="rotate(330)"/>
    </symbol>
    <style>
      .gear-slow { animation: spin 60s linear infinite; transform-box: fill-box; transform-origin: center; }
      .gear-fast { animation: spin 25s linear infinite; transform-box: fill-box; transform-origin: center; }
      .molten { animation: pour 8s ease-in-out infinite; }
      .molten.alt { animation-duration: 10s; }
      .pulse { animation: pulse 9s ease-in-out infinite; }
      .flicker { animation: flicker 6s ease-in-out infinite; }
      @keyframes spin { from { transform: rotate(0deg); } to { transform: rotate(360deg); } }
      @keyframes pour { 0%, 100% { transform: translateY(0); opacity: 0.95; } 50% { transform: translateY(14px); opacity: 0.8; } }
      @keyframes pulse { 0%, 100% { opacity: 0.35; } 50% { opacity: 0.75; } }
      @keyframes flicker { 0%, 100% { opacity: 0.35; } 40% { opacity: 0.7; } 70% { opacity: 0.45; } }
      text { font-family: "Georgia", "Times New Roman", serif; }
    </style>
  </defs>

  <rect x="0" y="0" width="1600" height="600" fill="url(#bg)"/>

  <g id="bg-hall" opacity="0.7">
    <rect x="0" y="80" width="1600" height="400" fill="#0e1a21"/>
    <g stroke="#1c2d36" stroke-width="2" opacity="0.6">
      <line x1="0" y1="120" x2="1600" y2="120"/>
      <line x1="0" y1="200" x2="1600" y2="200"/>
      <line x1="0" y1="280" x2="1600" y2="280"/>
      <line x1="0" y1="360" x2="1600" y2="360"/>
    </g>
    <g fill="#162630" opacity="0.8">
      <rect x="80" y="140" width="140" height="80"/>
      <rect x="260" y="140" width="120" height="90"/>
      <rect x="1200" y="150" width="160" height="70"/>
      <rect x="1380" y="150" width="140" height="80"/>
    </g>
  </g>

  <g id="molten-pours">
    <path class="molten" d="M300 0 C320 80 290 120 310 200 C330 300 300 420 320 600" fill="url(#molten)" opacity="0.85"/>
    <path class="molten alt" d="M500 0 C520 60 480 160 510 260 C540 340 500 460 520 600" fill="url(#molten)" opacity="0.75"/>
    <path class="molten" d="M1200 0 C1180 90 1220 180 1190 260 C1160 360 1200 460 1180 600" fill="url(#molten)" opacity="0.75"/>
  </g>

  <g id="mid-gears" opacity="0.95">
    <g class="gear-slow" transform="translate(650 340) scale(1.2)">
      <use href="#gear"/>
    </g>
    <g class="gear-fast" transform="translate(820 300) scale(0.75)">
      <use href="#gear"/>
    </g>
    <g class="gear-fast" transform="translate(1020 360) scale(0.6)">
      <use href="#gear"/>
    </g>
    <g class="gear-slow" transform="translate(460 360) scale(0.7)">
      <use href="#gear"/>
    </g>
  </g>

  <g id="mid-press" opacity="0.9">
    <rect x="560" y="420" width="520" height="80" rx="10" fill="#1f2e37" stroke="#425560" stroke-width="3"/>
    <rect x="610" y="440" width="420" height="40" rx="8" fill="#2c3f4a"/>
    <g class="pulse">
      <rect x="640" y="450" width="80" height="20" fill="#ffb35c" opacity="0.6"/>
      <rect x="760" y="450" width="80" height="20" fill="#ffb35c" opacity="0.6"/>
      <rect x="880" y="450" width="80" height="20" fill="#ffb35c" opacity="0.6"/>
    </g>
  </g>

  <g id="storytelling">
    <rect x="180" y="420" width="180" height="90" rx="6" fill="#1a2a33" stroke="#334651" stroke-width="2"/>
    <text x="195" y="450" font-size="14" fill="#9bb1bb">REMEMBRANCE PRESS</text>
    <text x="195" y="470" font-size="12" fill="#6f8793">KEEP HANDS CLEAR</text>
    <rect x="1240" y="420" width="220" height="90" rx="6" fill="#1a2a33" stroke="#334651" stroke-width="2"/>
    <text x="1255" y="450" font-size="13" fill="#9bb1bb">CALIBRATION GAUGE</text>
    <text x="1255" y="470" font-size="12" fill="#6f8793">AGE 03:42</text>
    <g>
      <rect x="60" y="250" width="120" height="100" fill="#1c2b33" stroke="#3a4b55"/>
      <rect x="70" y="260" width="100" height="20" fill="#273841"/>
      <rect x="70" y="290" width="100" height="20" fill="#273841"/>
      <rect x="70" y="320" width="100" height="20" fill="#273841"/>
    </g>
  </g>

  <g id="furnace" class="flicker">
    <circle cx="320" cy="520" r="50" fill="url(#furnace)"/>
    <circle cx="1180" cy="520" r="45" fill="url(#furnace)"/>
  </g>

  <g id="fg-text">
    <rect x="520" y="520" width="560" height="60" rx="12" fill="#101a20" stroke="#6f8793" stroke-width="3"/>
    <text x="800" y="560" font-size="28" text-anchor="middle" fill="#d8e0e5" letter-spacing="2">TOOT TOOT ENGINEERING</text>
  </g>

  <g id="logo-stamp" opacity="0.9">
    <rect x="1120" y="525" width="60" height="40" rx="6" fill="#0f1a20" stroke="#4d5d67"/>
    <image href="../../../toot-toot-logo.svg" x="1126" y="530" width="48" height="30"/>
  </g>
</svg>
